<svg width="37" height="37" viewBox="0 0 37 37" fill="none" xmlns="http://www.w3.org/2000/svg">
<g opacity="0.5" clip-path="url(#clip0_526_2354)">
<path d="M3.50004 2.83899C3.50004 1.59657 4.84348 0.588989 6.50004 0.588989H30.5C32.1594 0.588989 33.5 1.59657 33.5 2.83899C33.5 4.08141 32.1594 5.08899 30.5 5.08899H27.7344L28.8032 15.5093C32.2438 16.9085 34.9532 19.2499 36.2563 22.1679L36.35 22.3788C36.65 23.0609 36.4157 23.8202 35.8532 24.4038C35.3657 24.9945 34.4657 25.339 33.5 25.339H3.50004C2.53535 25.339 1.62973 24.9945 1.06629 24.4038C0.502467 23.8202 0.349008 23.0609 0.653977 22.3788L0.747914 22.1679C2.0441 19.2499 4.75817 16.9085 8.20067 15.5093L9.26942 5.08899H6.50004C4.84348 5.08899 3.50004 4.08141 3.50004 2.83899ZM21.5 27.589V34.339C21.5 35.5835 20.1594 36.589 18.5 36.589C16.8407 36.589 15.5 35.5835 15.5 34.339V27.589H21.5Z" fill="#D9D9D9"/>
</g>
<defs>
<clipPath id="clip0_526_2354">
<rect width="36" height="36" fill="white" transform="translate(0.5 0.588989)"/>
</clipPath>
</defs>
</svg>
