<svg width="37" height="36" viewBox="0 0 37 36" fill="none" xmlns="http://www.w3.org/2000/svg">
<g clip-path="url(#clip0_401_3229)">
<path d="M6.82239 13.4368H2.32239C1.07997 13.4368 0.0723877 14.4444 0.0723877 15.6235V31.3102C0.0723877 32.5526 1.07997 33.4969 2.32239 33.4969H6.82239C8.06481 33.4969 9.07239 32.4894 9.07239 31.3102V15.6868C9.07239 14.5055 8.06692 13.4368 6.82239 13.4368ZM36.0724 15.961C36.0724 13.3672 33.9595 11.2557 31.3636 11.2557H24.3422C25.0122 9.49928 25.3849 7.98053 25.3849 7.08756C25.3849 4.711 23.5427 2.25146 20.4588 2.25146C17.1815 2.25146 16.285 4.5324 15.5643 6.36475C13.3382 12.0249 11.3224 11.0328 11.3224 12.9369C11.3224 13.8397 12.0508 14.6237 13.0113 14.6237C13.3809 14.6237 13.7531 14.5026 14.0639 14.2538C19.4611 9.93873 18.1399 5.62646 20.4588 5.62646C21.5894 5.62646 22.0099 6.52295 22.0099 7.08826C22.0099 7.60886 21.4759 9.86912 20.2134 12.1219C20.0695 12.3783 19.9978 12.6624 19.9978 12.946C19.9978 13.9247 20.8015 14.5702 21.6853 14.5702H31.3603C32.0997 14.6321 32.6974 15.2297 32.6974 15.961C32.6974 16.6507 32.1513 17.2287 31.455 17.2765C30.5648 17.337 29.8828 18.0781 29.8828 18.9598C29.8828 20.0476 30.6836 20.0813 30.6836 20.9926C30.6836 22.7764 28.2206 21.8602 28.2206 23.9562C28.2206 24.7451 28.67 24.8724 28.67 25.5207C28.67 27.114 26.5768 26.4882 26.5768 28.3782C26.5768 28.6956 26.6549 28.7973 26.6549 29.0431C26.6549 29.7778 26.0561 30.3755 25.321 30.3755H21.6275C19.8261 30.3755 18.0402 29.7802 16.6002 28.7013L14.0225 26.767C13.7191 26.5389 13.3637 26.4288 13.0114 26.4288C12.0376 26.4288 11.3218 27.2289 11.3218 28.1191C11.3218 28.6315 11.5547 29.133 11.9965 29.4642L14.5749 31.3992C16.5958 32.9133 19.099 33.7501 21.6302 33.7501H25.3237C27.8079 33.7501 29.849 31.8172 30.0206 29.3766C31.27 28.5167 32.0477 27.0908 32.0477 25.5214C32.0477 25.3072 32.0323 25.092 32.0027 24.88C33.257 24.0257 34.0614 22.5892 34.0614 20.9931C34.0614 20.6197 34.0164 20.252 33.9296 19.8934C35.2216 18.9915 36.0724 17.5922 36.0724 15.961Z" fill="#D9D9D9"/>
</g>
<defs>
<clipPath id="clip0_401_3229">
<rect width="36" height="36" fill="white" transform="translate(0.0723877)"/>
</clipPath>
</defs>
</svg>
