<svg width="12" height="12" viewBox="0 0 12 12" fill="none" xmlns="http://www.w3.org/2000/svg">
<path d="M10.6629 6.74063L10.6775 10.493C10.6775 10.5586 10.6734 10.6195 10.6671 10.6828V11.0625C10.6671 11.5805 10.2942 12 9.83374 12H9.50039C9.47748 12 9.45456 11.9789 9.43164 11.9977C9.40247 11.9789 9.37331 12 9.34414 12H8.16701C7.70657 12 7.33364 11.5805 7.33364 11.0625V9C7.33364 8.58516 7.03571 8.25 6.66694 8.25H5.33355C4.96479 8.25 4.66686 8.58516 4.66686 9V11.0625C4.66686 11.5805 4.29393 12 3.83349 12H2.66886C2.63761 12 2.60636 11.9977 2.57511 11.9953C2.55011 11.9977 2.5251 12 2.5001 12H2.16676C1.70653 12 1.33339 11.5805 1.33339 11.0625V8.4375C1.33339 8.41641 1.33401 8.39297 1.33526 8.37188V6.74063H0.667736C0.292095 6.74063 0 6.41016 0 5.98828C0 5.77734 0.0625859 5.58984 0.20855 5.42578L5.55023 0.187875C5.69607 0.0234844 5.86274 0 6.00858 0C6.15442 0 6.3211 0.0469687 6.44818 0.164391L8.66703 2.36016V1.5C8.66703 1.08586 8.96496 0.75 9.33372 0.75H10.0004C10.3692 0.75 10.6671 1.08586 10.6671 1.5V4.33594L11.7672 5.42578C11.9338 5.58984 12.0192 5.77734 11.9963 5.98828C11.9963 6.41016 11.6838 6.74063 11.3296 6.74063H10.6629Z" fill="#0C3898"/>
</svg>
