<svg width="33" height="25" viewBox="0 0 33 25" fill="none" xmlns="http://www.w3.org/2000/svg">
<path d="M0.0723877 4.88818C0.0723877 2.67881 1.86301 0.888184 4.07239 0.888184H28.0724C30.2786 0.888184 32.0724 2.67881 32.0724 4.88818V20.8882C32.0724 23.0944 30.2786 24.8882 28.0724 24.8882H4.07239C1.86301 24.8882 0.0723877 23.0944 0.0723877 20.8882V4.88818ZM3.07239 4.88818V6.26943L13.8536 15.1194C15.1411 16.1819 17.0036 16.1819 18.2911 15.1194L29.0724 6.26943V4.83193C29.0724 4.33818 28.6224 3.83193 28.0724 3.83193H4.07239C3.51989 3.83193 3.07239 4.33818 3.07239 4.83193V4.88818ZM3.07239 10.1507V20.8882C3.07239 21.4382 3.51989 21.8882 4.07239 21.8882H28.0724C28.6224 21.8882 29.0724 21.4382 29.0724 20.8882V10.1507L20.1974 17.4382C17.7974 19.4069 14.3474 19.4069 11.8911 17.4382L3.07239 10.1507Z" fill="white"/>
</svg>
