<svg width="36" height="37" viewBox="0 0 36 37" fill="none" xmlns="http://www.w3.org/2000/svg">
<path d="M35.1773 31.1976L26.7609 22.7812C28.6748 19.9399 29.6191 16.3898 29.1135 12.607C28.2515 6.17271 22.978 0.936538 16.5374 0.121124C6.96156 -1.09057 -1.09063 6.96162 0.121137 16.5375C0.936763 22.9809 6.17364 28.2586 12.6086 29.1164C16.3915 29.6219 19.9422 28.6779 22.7829 26.7637L31.1993 35.1801C32.2975 36.2784 34.0786 36.2784 35.1768 35.1801C36.2741 34.0804 36.2741 32.2945 35.1773 31.1976ZM5.56164 14.625C5.56164 9.66232 9.59898 5.62498 14.5616 5.62498C19.5243 5.62498 23.5616 9.66232 23.5616 14.625C23.5616 19.5876 19.5243 23.625 14.5616 23.625C9.59898 23.625 5.56164 19.589 5.56164 14.625Z" fill="white"/>
</svg>
